# xmcd
#
# Track frame offsets:
#	150
#	12569
#	26357
#	39211
#	53758
#	66089
#	78947
#	93082
#	109735
#	122209
#	137541
#	151418
#	161968
#	173037
#	186659
#	200598
#	214349
#	227977
#	241111
#	250852
#	267256
#	279203
#
# Disc length: 4032 seconds
#
# Revision: 2
# Processed by: cddbd v1.4PL0 Copyright (c) Steve Scherf et al.
# Submitted via: audiograbber 1.80
#
DISCID=2e0fbe16
DTITLE=Various Country Artists - C C - The Mid '70s - Hot Hits
DYEAR=1900
DGENRE=
TTITLE0=Conway Twitty  and Loretta Lynn - As Soon As I Hang Up The Phone
TTITLE1=Gary Stewart - Out Of Hand
TTITLE2=Waylon Jennings - I'm A Ramblin' Man
TTITLE3=Johnny Duncan - Stranger
TTITLE4=George Jones - Once You've Had The Best
TTITLE5=T. G. Sheppard - Devil In The Bottle
TTITLE6=Tanya Tucker - Blood Red And Goin' Down
TTITLE7=Cal Smith - It's Time To Pay The Fiddler
TTITLE8=Dolly Parton - The Bargain Store
TTITLE9=Gene Watson - Love In The Hot Afternoon
TTITLE10=Loretta Lynn - Somebody Somewhere (Don't Know What He's Missin' Tonigh
TTITLE10=t)
TTITLE11=Billy "Crash" Craddock - Rub It In
TTITLE12=Ronnie Milsap - Daydreams About Night Things
TTITLE13=Conway Twitty - After All The Good Is Gone
TTITLE14=George Jones and Tammy Wynette - Golden Ring
TTITLE15=Don Williams - I Wouldn't Want To Live If You Didn't Love Me
TTITLE16=Dickey Lee - 9,999,999 Tears
TTITLE17=Freddy Fender - You'll Lose A Good Thing
TTITLE18=Dottie West - Country Sunshine
TTITLE19=Billie Jo Spears - Blanket On The Ground
TTITLE20=Johnny Rodriguez - I Just Can't Get Her Out Of My Mind
TTITLE21=Red Sovine - Teddy Bear
EXTD=
EXTT0=
EXTT1=
EXTT2=
EXTT3=
EXTT4=
EXTT5=
EXTT6=
EXTT7=
EXTT8=
EXTT9=
EXTT10=
EXTT11=
EXTT12=
EXTT13=
EXTT14=
EXTT15=
EXTT16=
EXTT17=
EXTT18=
EXTT19=
EXTT20=
EXTT21=
PLAYORDER=
